<svg xmlns="http://www.w3.org/2000/svg" fill="transparent" stroke="black">
<path preserveAspectRatio="xMidYMid meet" id="clip" d="M401.851 276.107L394.495 273.46L388.609 274.048L383.018 270.517L367.128 279.345L246.187 299.06L118.183 287.29L106.707 284.053L98.762 282.288L88.756 283.758L80.811 280.228L76.398 278.756L73.456 275.52L64.922 282.582L51.091 274.637L45.501 280.228L32.848 287.29L23.431 280.522L20 279.807L20 334.834C48.057 339.097 85.74 344.745 86.109 344.376C86.697 343.787 179.096 317.598 179.096 317.598L439.528 311.511L439.528 275.655L424.471 273.992L412.444 270.517L401.851 276.107Z" />
</svg>
